<svg width="512" height="512" viewBox="0 0 512 512" fill="none" xmlns="http://www.w3.org/2000/svg">
<rect width="512" height="512" fill="white"/>
<path d="M249.766 5C230.41 31.7355 205.857 53.4731 196 61C217.506 57.3871 250.961 33 265 21.2581L249.766 5Z" fill="black"/>
<path d="M170.31 100.176C151.543 109.506 133.617 139.946 127 154C232.389 105.2 275.579 67.2843 284 54.4265V32H278.586C260.54 51.3765 198.883 85.5245 170.31 100.176Z" fill="black"/>
<path d="M341 474L293 512H341V474Z" fill="black"/>
<path d="M370.273 410.231C287.364 442.215 257.545 491.404 253 512H276.636C284.636 495.281 295.727 483.226 300.273 479.288C343.182 453.119 356.939 442.337 358.455 440.216C403 388.423 453.909 402.053 483 399.327L463.909 323C437.727 368.796 390.576 400.236 370.273 410.231Z" fill="black"/>
<path d="M257.466 422.21C237.927 444.603 214.347 490.533 205 510.699C215.553 514.01 239.374 513.047 250.229 482.708C263.798 444.784 280.985 436.657 285.508 433.949C289.126 431.781 355.763 394.52 388.63 376.16C424.813 349.432 439.286 325.896 442 317.468V266C431.145 272.501 422.401 286.768 419.385 293.088C404.189 333.541 366.618 358.703 349.733 366.227C293.287 395.844 264.702 415.89 257.466 422.21Z" fill="black"/>
<path d="M178.4 463.845C166.809 483.432 173.57 503.443 178.4 511C187.456 505.559 208.284 473.82 221.868 444.801C235.451 415.783 259.902 393.112 268.052 390.391C274.572 388.215 322.085 361.675 345.026 348.677C359.515 338.4 389.762 314.943 394.833 303.335C399.904 291.728 415.057 264.644 422 252.553L416.567 219C412.341 220.209 402.077 227.524 394.833 247.112C387.588 266.699 378.532 282.478 374.91 287.919C351.365 307.87 296.487 350.672 265.335 362.279C234.184 373.887 219.151 393.716 215.529 402.18C207.982 414.574 189.992 444.257 178.4 463.845Z" fill="black"/>
<path d="M148.197 421.398C146.751 434.4 153.618 447.883 157.233 453C166.569 445.476 187.592 424.287 196.989 399.728C206.386 375.169 237.047 355.786 251.202 349.165C265.358 340.738 299.633 320.272 323.487 305.825C347.341 291.379 365.352 273.922 371.376 267C392.338 235.94 401.193 199.282 403 184.835L396.675 174C382.941 181.223 369.87 204.097 365.051 214.631C362.942 222.757 354.931 243.163 339.751 259.777C324.571 276.39 277.406 305.223 255.72 317.563C243.07 323.883 213.615 339.052 196.989 349.165C180.364 359.278 157.534 401.534 148.197 421.398Z" fill="black"/>
<path d="M128.46 414L94 402.216C117.215 335.501 199.193 289.816 237.279 275.313C265.694 260.81 323.973 226.546 329.776 205.516C335.58 184.486 358.19 148.41 368.77 133L386 163.819C379.35 168.956 363.329 185.212 352.447 209.142C341.565 233.072 327.963 249.328 322.522 254.465C312.849 261.414 279.538 282.202 223.677 309.758C167.816 337.314 136.923 390.734 128.46 414Z" fill="black"/>
<path d="M28 398.633C28.0633 398.627 28.1269 398.62 28.1908 398.614C28.6091 396.896 29.7973 389 32.5342 366.065C36.1616 335.669 55.2055 322.642 64.274 319.928L197.581 242.127C232.041 224.637 302.957 184.952 310.937 166.135C318.917 147.319 337.84 114.871 346.304 101L359 119.998C350.294 157.632 316.68 197.799 300.962 213.178L108.71 327.165C102.966 332.593 89.6658 348.515 82.411 368.779C75.1865 388.959 43.3821 397.057 28.1908 398.614C28.0546 399.172 28 399.077 28 398.633Z" fill="black"/>
<path d="M87.8623 251.06C66.8682 262.682 59.2066 289.196 58 301C124.059 262.864 260.702 184.05 278.8 173.88C296.898 163.71 323.141 113.347 334 89.436L325.856 74C315.721 76.9056 305.948 93.3707 302.328 101.24C294.365 126.664 274.879 144.521 266.131 150.272C215.456 179.025 108.856 239.438 87.8623 251.06Z" fill="black"/>
<path d="M131.462 173.269C101.524 190.558 87.3467 218.294 84 230C96.1697 226.398 136.573 208.928 200.829 167.866C281.149 116.537 286.625 110.234 303.054 80.5174C305.792 71.2123 309.078 51.8816 300.316 49L281.149 67.01C282.67 71.8126 283.522 82.6786 274.76 87.7214C257.235 107.893 171.926 153.158 131.462 173.269Z" fill="black"/>
</svg>
